# xmcd
# 
# Track frame offsets:
#     150
#     10853
#     22405
#     32826
#     44308
#     56726
#     69956
#     80856
#     92588
#     104415
#     113337
#     125222
# 
# Disc length: 1838
# 
# Revision: 1
# Processed by: cddbd v1.5.2PL0 Copyright (c) Steve Scherf et al.
# Submitted via: fre:ac v1.0.17
# 
DISCID=a1072c0c
DTITLE=Patsy Cline - Vintage Vaults
DYEAR=2005
DGENRE=Country
TTITLE0=Lovesick Blues
TTITLE1=Crazy Dreams
TTITLE2=Walkin' Dream
TTITLE3=Hungry For Love
TTITLE4=A Poor Man's Roses (Or A Rich Man's Gold)
TTITLE5=If I Could See The World (Through The Eyes Of A Child)
TTITLE6=Stop Look And Listen
TTITLE7=Lonely Street
TTITLE8=Let The Teardrops Fall
TTITLE9=Come On In
TTITLE10=Never No More
TTITLE11=Yes I Understand
EXTD=
EXTT0=
EXTT1=
EXTT2=
EXTT3=
EXTT4=
EXTT5=
EXTT6=
EXTT7=
EXTT8=
EXTT9=
EXTT10=
EXTT11=
PLAYORDER=
